<mxfile host="app.diagrams.net" modified="2021-11-13T14:33:54.464Z" agent="5.0 (Windows NT 10.0; Win64; x64) AppleWebKit/537.36 (KHTML, like Gecko) Chrome/95.0.4638.69 Safari/537.36 Edg/95.0.1020.44" etag="DWaMFrHxxQ0HzAlBOWO7" version="15.7.3" type="github">
  <diagram id="_MZrXG9yAYT32xF91kpi" name="Page-1">
    <mxGraphModel dx="970" dy="530" grid="1" gridSize="10" guides="1" tooltips="1" connect="1" arrows="1" fold="1" page="1" pageScale="1" pageWidth="827" pageHeight="1169" math="0" shadow="0">
      <root>
        <mxCell id="0" />
        <mxCell id="1" parent="0" />
        <mxCell id="WR-H9wQaWADqAqjOtZfn-27" value="" style="group" vertex="1" connectable="0" parent="1">
          <mxGeometry x="90" y="160" width="120" height="60" as="geometry" />
        </mxCell>
        <mxCell id="WR-H9wQaWADqAqjOtZfn-1" value="" style="rounded=0;whiteSpace=wrap;html=1;" vertex="1" parent="WR-H9wQaWADqAqjOtZfn-27">
          <mxGeometry width="120" height="60" as="geometry" />
        </mxCell>
        <mxCell id="WR-H9wQaWADqAqjOtZfn-3" value="" style="endArrow=none;html=1;rounded=0;" edge="1" parent="WR-H9wQaWADqAqjOtZfn-27" target="WR-H9wQaWADqAqjOtZfn-1">
          <mxGeometry width="50" height="50" relative="1" as="geometry">
            <mxPoint y="29.710000000000036" as="sourcePoint" />
            <mxPoint x="60" y="29.710000000000036" as="targetPoint" />
          </mxGeometry>
        </mxCell>
        <mxCell id="WR-H9wQaWADqAqjOtZfn-4" value="" style="endArrow=none;html=1;rounded=0;entryX=1;entryY=0.5;entryDx=0;entryDy=0;" edge="1" parent="WR-H9wQaWADqAqjOtZfn-27" target="WR-H9wQaWADqAqjOtZfn-1">
          <mxGeometry width="50" height="50" relative="1" as="geometry">
            <mxPoint y="29.70999999999998" as="sourcePoint" />
            <mxPoint x="80" y="29.70999999999998" as="targetPoint" />
            <Array as="points">
              <mxPoint x="60" y="30" />
              <mxPoint x="90" y="30" />
            </Array>
          </mxGeometry>
        </mxCell>
      </root>
    </mxGraphModel>
  </diagram>
</mxfile>
